<svg width="14" height="18" viewBox="0 0 14 18" fill="none" xmlns="http://www.w3.org/2000/svg">
<path fill-rule="evenodd" clip-rule="evenodd" d="M10.5 1H13C13.55 1 14 1.45 14 2C14 2.55 13.55 3 13 3H1C0.45 3 0 2.55 0 2C0 1.45 0.45 1 1 1H3.5L4.21 0.29C4.39 0.11 4.65 0 4.91 0H9.09C9.35 0 9.61 0.11 9.79 0.29L10.5 1ZM2.99992 18C1.89992 18 0.999919 17.1 0.999919 16V6.00004C0.999919 4.90004 1.89992 4.00004 2.99992 4.00004H10.9999C12.0999 4.00004 12.9999 4.90004 12.9999 6.00004V16C12.9999 17.1 12.0999 18 10.9999 18H2.99992Z" fill="#E4163A"/>
</svg>
