<svg width="20" height="20" viewBox="0 0 20 20" fill="none" xmlns="http://www.w3.org/2000/svg">
<path d="M17.4986 7.915V3.50666C17.4986 3.13166 17.0486 2.94833 16.7902 3.215L15.3069 4.69833C13.7986 3.19 11.6486 2.32333 9.29858 2.53166C5.80692 2.84833 2.93192 5.65666 2.54858 9.14833C2.04858 13.665 5.57358 17.4983 9.99858 17.4983C13.8236 17.4983 16.9819 14.6317 17.4402 10.9317C17.4986 10.4317 17.1069 9.99833 16.6069 9.99833C16.1902 9.99833 15.8402 10.3067 15.7902 10.715C15.4319 13.6233 12.9236 15.8733 9.91525 15.8317C6.82358 15.79 4.21525 13.1817 4.16525 10.0817C4.11525 6.83166 6.75692 4.165 9.99858 4.165C11.6069 4.165 13.0652 4.82333 14.1236 5.87333L12.3819 7.615C12.1152 7.88166 12.2986 8.33166 12.6736 8.33166H17.0819C17.3152 8.33166 17.4986 8.14833 17.4986 7.915Z" fill="#0ACDDE"/>
</svg>
